<svg width="239" height="50" viewBox="0 0 239 50" fill="none" xmlns="http://www.w3.org/2000/svg">
<path d="M13.3997 2.77342C12.5181 3.65092 11.8187 4.69405 11.3417 5.84282C10.8647 6.99159 10.6195 8.22332 10.6202 9.46719H40.0929V2.17543e-05H20.0965C18.2004 -0.00405512 16.3474 0.564978 14.7803 1.6325C14.2861 1.96962 13.8239 2.35154 13.3997 2.77342Z" fill="#DA274E"/>
<path d="M36.1664 46.7957C37.0473 45.918 37.7458 44.8747 38.2218 43.7259C38.6978 42.5771 38.9418 41.3455 38.9398 40.1019H9.46413V9.46716C9.4622 8.07074 9.73655 6.68774 10.2714 5.3978C10.8062 4.10785 11.5909 2.93646 12.5804 1.95109C12.9245 1.60495 13.2925 1.28352 13.6819 0.989197C14.1767 0.613804 14.7037 0.282788 15.2567 0L9.46413 0C8.22103 -6.3892e-08 6.9901 0.244897 5.84166 0.720704C4.69322 1.19651 3.64977 1.89391 2.77091 2.77305C1.89204 3.6522 1.19498 4.69588 0.719543 5.84447C0.244105 6.99306 -0.000398072 8.22406 4.86474e-07 9.46716V40.1141H9.46413V49.5812H29.4726C31.3693 49.5835 33.2225 49.0124 34.7888 47.9427C35.2829 47.6044 35.7442 47.2204 36.1664 46.7957Z" fill="#DA274E"/>
<path d="M40.1019 9.46716V40.1141C40.1037 41.5102 39.8296 42.8929 39.2954 44.1828C38.7611 45.4727 37.9772 46.6442 36.9887 47.6302C36.6446 47.9763 36.2765 48.2977 35.8872 48.592C35.3924 48.9674 34.8654 49.2984 34.3124 49.5812H40.1019C42.6125 49.5804 45.0201 48.5827 46.7953 46.8075C48.5706 45.0322 49.5683 42.6247 49.5691 40.1141V9.46716H40.1019Z" fill="#DA274E"/>
<path d="M63.7213 10.0558H71.6743C75.3156 10.0558 77.6004 10.4776 79.418 11.573C80.5089 12.2194 81.4089 13.1436 82.0262 14.2513C82.6435 15.359 82.956 16.6106 82.9318 17.8784C82.9318 21.2162 80.9412 23.677 77.7248 24.6055V24.6905C81.6179 25.3672 84.1576 28.0768 84.1576 32.1368C84.1875 33.4168 83.9022 34.6846 83.3271 35.8285C82.752 36.9724 81.9045 37.9575 80.8593 38.6971C78.9537 40.0504 76.5839 40.6846 71.6319 40.6846H63.7213V10.0558ZM73.3675 23.8925C77.2181 23.8925 80.3465 21.9869 80.3465 18.1818C80.3802 17.2609 80.1613 16.3484 79.7137 15.5429C79.266 14.7374 78.6066 14.0698 77.8068 13.6121C76.411 12.7655 74.7208 12.4257 71.4346 12.4257H66.2914V23.8925H73.3675ZM71.7927 38.3238C75.9831 38.3238 77.9281 37.7716 79.327 36.7551C80.0412 36.2206 80.6173 35.5231 81.0073 34.7208C81.3974 33.9186 81.5901 33.0347 81.5693 32.1429C81.5693 28.3378 78.4349 26.0499 73.6133 26.0499H66.2914V38.3238H71.7927Z" fill="white"/>
<path d="M90.9576 39.7196C90.2635 39.2002 89.705 38.5211 89.3294 37.7398C88.9539 36.9586 88.7723 36.0982 88.8001 35.2318C88.7759 34.2685 89.0057 33.3157 89.4665 32.4693C89.9272 31.623 90.6026 30.9128 91.4249 30.4102C92.9906 29.3937 95.1055 29.0144 97.1355 29.0144C98.9528 29.026 100.76 29.2822 102.509 29.7761V27.3638C102.509 25.3307 102.13 24.026 100.992 23.0034C100.021 22.1599 98.5829 21.6926 96.7198 21.6926C94.4299 21.6848 92.1951 22.3947 90.3295 23.7225V21.2404C92.3296 20.0167 94.6299 19.3717 96.9747 19.3774C99.4719 19.3774 101.502 20.0115 102.898 21.198C104.294 22.3844 105.022 24.2323 105.022 26.7812V35.7962C105.022 37.5713 105.447 38.8852 107.146 38.8852C107.612 38.8819 108.07 38.7619 108.478 38.5362V40.6936C107.901 40.9322 107.281 41.0479 106.657 41.0335C104.882 41.0335 103.483 40.1869 102.892 38.5787H102.807C100.864 40.2195 98.4101 41.1325 95.8671 41.1609C94.0921 41.1579 92.3139 40.7331 90.9576 39.7196ZM102.509 36.4607V31.7636C100.832 31.2776 99.0969 31.0214 97.3509 31.0019C94.3894 31.0019 91.3429 31.9335 91.3429 35.0224C91.3429 37.7291 93.6703 38.9125 96.1979 38.9125C98.526 38.8699 100.763 38.0009 102.509 36.4607Z" fill="white"/>
<path d="M111.521 36.6731C113.889 38.1249 116.615 38.8868 119.392 38.873C122.906 38.873 125.158 37.6441 125.158 35.1499C125.158 32.0184 121.686 31.6786 118.428 31.1719C114.959 30.6196 111.024 29.6061 111.024 25.3732C111.024 21.4286 114.362 19.4077 119.107 19.4077C121.71 19.394 124.278 20.0037 126.596 21.1858V23.8075C124.311 22.4141 121.686 21.679 119.01 21.6835C115.751 21.6835 113.509 22.8274 113.509 25.1942C113.509 28.1132 116.895 28.4106 120.024 28.9204C123.789 29.5272 127.64 30.5286 127.64 34.9284C127.64 39.0339 124.302 41.1488 119.262 41.1488C116.513 41.1488 113.636 40.5146 111.518 39.3282L111.521 36.6731Z" fill="white"/>
<path d="M134.158 30.9503C134.579 35.8599 138.102 38.9033 143.003 38.9033C145.794 38.9033 148.079 37.8899 149.982 36.4941V39.2007C147.814 40.4768 145.345 41.1495 142.83 41.1488C136.439 41.1488 131.7 36.7459 131.7 30.2737C131.7 23.8014 136.358 19.4198 141.986 19.4198C147.023 19.4198 151.211 23.0155 151.211 29.1934C151.211 29.8306 151.168 30.4648 151.126 30.9716L134.158 30.9503ZM134.243 28.8779H148.756C148.628 23.2916 144.693 21.6409 141.901 21.6409C138.433 21.65 134.919 24.0624 134.243 28.887V28.8779Z" fill="white"/>
<path d="M183.071 28.6746C183.071 27.1088 182.816 26.3897 182.31 25.8405C182.028 25.5437 181.686 25.3108 181.306 25.1575C180.927 25.0041 180.519 24.9338 180.11 24.9514C178.629 24.9514 177.106 25.713 176.004 26.684C176.04 26.9942 176.054 27.3065 176.047 27.6186V40.6906H169.62V28.6746C169.62 27.2788 169.408 26.4322 168.858 25.8405C168.576 25.5438 168.233 25.311 167.853 25.1576C167.473 25.0043 167.065 24.934 166.655 24.9514C165.175 24.9514 163.651 25.7555 162.592 26.6446V40.6906H156.16V19.8719H162.508V21.735L162.589 21.7775C164.33 20.2702 166.553 19.4341 168.855 19.4198C171.098 19.4198 173.677 20.3089 174.906 22.3813C177.148 20.3817 179.603 19.4198 182.225 19.4198C184.552 19.4198 186.373 20.2239 187.599 21.4953C188.909 22.8486 189.504 24.6662 189.504 27.6307V40.6906H183.071V28.6746Z" fill="white"/>
<path d="M190.982 19.8719H197.751L200.206 26.5475C201.01 28.7474 201.811 31.0323 202.531 33.1472H202.619C203.38 31.0232 204.266 28.6624 205.113 26.505L207.695 19.8598H214.04L205.58 40.6906H199.445L190.982 19.8719Z" fill="white"/>
<path d="M223.392 50H216.956V19.8719H223.258V20.937L223.343 20.9795C224.862 19.9424 226.662 19.3959 228.501 19.4138C233.833 19.4138 238.36 23.6467 238.36 30.1189C238.36 36.7945 233.578 41.164 227.485 41.164C226.106 41.1921 224.737 40.9165 223.477 40.3568L223.392 40.3993V50ZM226.693 35.954C230.031 35.954 231.897 33.5265 231.897 30.4527C231.897 27.3789 230.034 24.7815 226.863 24.7815C225.615 24.7906 224.402 25.1895 223.392 25.9224V35.1499C224.414 35.6738 225.545 35.9493 226.693 35.954Z" fill="white"/>
</svg>
